# xmcd CD database file
#
# Track frame offsets:
#	150
#	19725
#	43200
#	62775
#
# Disc length: 1145 seconds
#
# Revision: 0
# Processed by: cddbd v1.5PL3 Copyright (c) Steve Scherf et al.
# Submitted via: CDex 1.50beta8
#
DISCID=31047704
DTITLE=Pretty Purity Panix - KOKO-パラダイス
DYEAR=1998
DGENRE=J-pop
TTITLE0=KOKO-パラダイス
TTITLE1=Fly over to you…夜空をかけて
TTITLE2=KOKO-パラダイス（インストゥルメンタル）
TTITLE3=Fly over to you…夜空をかけて（インストゥルメンタル）
EXTD=YEAR: 1998
EXTT0=
EXTT1=
EXTT2=
EXTT3=
PLAYORDER=
